<svg width="41" height="40" viewBox="0 0 41 40" fill="none" xmlns="http://www.w3.org/2000/svg">
<path d="M2.54942 40C0.771645 40 0.327201 37.5309 0.327201 36.2963C0.0802874 32.8395 -0.265392 23.7037 0.327201 14.8148C1.06794 3.7037 13.6605 0 18.8457 0C24.0309 0 29.2161 1.48148 34.4013 5.92593C39.5865 10.3704 40.3272 15.5556 40.3272 20C40.3272 24.4444 39.5865 28.8889 35.8828 34.0741C32.9198 38.2222 27.2408 39.7531 24.7716 40H2.54942Z" fill="#D51C29"/>
<path d="M9.21621 33.3333C7.43843 33.3333 6.99399 31.8518 6.99399 31.1111L6.99401 18.5185C6.99399 15.5555 7.7052 10.3703 13.6607 10.3703C19.5866 10.3703 21.0681 15.8025 21.0681 19.2592C27.7347 18.5185 29.957 23.7037 29.957 25.9259C29.957 28.1481 29.2162 30.3703 27.7347 31.8518C26.5495 33.037 24.7718 33.3333 24.031 33.3333H9.21621Z" fill="white"/>
</svg>
